<?xml version="1.0" standalone="no"?>
<!DOCTYPE svg PUBLIC "-//W3C//DTD SVG 20010904//EN"
 "http://www.w3.org/TR/2001/REC-SVG-20010904/DTD/svg10.dtd">
<svg version="1.0" xmlns="http://www.w3.org/2000/svg"
 width="700.000000pt" height="700.000000pt" viewBox="0 0 700.000000 700.000000"
 preserveAspectRatio="xMidYMid meet">
<metadata>
Created by potrace 1.14, written by Peter Selinger 2001-2017
</metadata>
<g transform="translate(0.000000,700.000000) scale(0.100000,-0.100000)"
fill="#000000" stroke="none">
<path d="M558 6765 c0 -5 -2 -587 -3 -1293 l-1 -1283 880 4 c985 3 918 -1
1081 77 222 107 345 318 346 597 2 334 -150 571 -428 667 l-33 11 64 43 c113
74 196 184 237 312 29 93 34 131 33 255 -3 338 -206 554 -574 611 -74 11
-1600 10 -1602 -1z m1472 -391 c132 -39 202 -130 203 -263 1 -119 -49 -213
-146 -279 -52 -35 -95 -50 -272 -97 -77 -20 -223 -59 -324 -87 -101 -27 -191
-51 -200 -53 -9 -2 -52 -14 -96 -26 -44 -12 -91 -23 -105 -26 l-25 -5 2 404
c1 222 2 413 2 426 l1 22 453 0 c385 0 461 -2 507 -16z m-70 -1008 c73 -13
203 -80 260 -136 28 -28 63 -75 78 -107 24 -52 27 -70 27 -163 0 -200 -74
-310 -244 -366 -64 -21 -81 -22 -539 -23 l-472 -2 2 288 3 287 80 23 c420 124
724 209 740 208 11 -1 40 -5 65 -9z"/>
<path d="M3239 4645 c-5 -108 -3 -453 2 -465 6 -13 45 -15 266 -15 l258 1 1
243 c0 161 -3 244 -10 249 -6 4 -125 7 -263 7 -247 0 -253 0 -254 -20z"/>
<path d="M554 1540 c0 -709 2 -1290 5 -1291 4 0 120 -1 259 -2 l252 -2 1 35
c0 19 1 243 1 498 0 254 2 462 4 462 1 0 110 29 241 66 131 36 245 67 253 69
8 2 170 46 360 98 190 53 347 93 350 90 3 -2 6 -296 6 -651 1 -356 2 -651 3
-657 1 -11 490 -13 507 -3 5 4 9 512 9 1290 l-1 1283 -260 3 -259 2 0 -426 c0
-234 -2 -429 -5 -434 -4 -6 -137 -47 -210 -65 -8 -2 -116 -31 -240 -65 -124
-34 -232 -64 -240 -66 -8 -2 -121 -33 -250 -68 -129 -36 -242 -66 -251 -66
-15 0 -16 53 -17 583 0 320 -1 588 -1 595 -1 9 -60 12 -259 12 l-258 0 0
-1290z"/>
<path d="M3298 2823 c-7 -14 -2 -2562 5 -2569 5 -5 1738 -9 1939 -5 l27 1 -2
197 -2 198 -720 1 c-396 1 -722 2 -725 3 -3 0 -5 162 -5 359 l0 357 673 1
c370 1 675 4 678 6 4 5 6 122 4 340 l0 57 -652 0 c-359 0 -664 1 -678 1 l-25
0 0 328 0 327 708 3 c389 1 708 5 708 10 1 4 2 94 3 200 l1 192 -967 0 c-532
0 -968 -3 -970 -7z"/>
</g>
</svg>
